<?xml version="1.0" encoding="utf-8"?>
<!-- Generator: Adobe Illustrator 13.0.0, SVG Export Plug-In . SVG Version: 6.00 Build 14948)  -->
<!DOCTYPE svg PUBLIC "-//W3C//DTD SVG 1.1//EN" "http://www.w3.org/Graphics/SVG/1.1/DTD/svg11.dtd">
<svg version="1.1" id="Ebene_1" xmlns="http://www.w3.org/2000/svg" xmlns:xlink="http://www.w3.org/1999/xlink" x="0px" y="0px"
	 width="39.878px" height="38.051px" viewBox="0 0 39.878 38.051" enable-background="new 0 0 39.878 38.051" xml:space="preserve">
<rect y="0.122" width="39.878" height="37.929"/>
<polygon fill="#FFFFFF" points="35.828,29.692 31.684,33.508 4.05,33.508 4.05,7.286 35.828,7.286 "/>
<g>
	<path d="M9.285,26.139h3.284v-9.644l-3.055,0.756v-2.647l3.075-0.736h2.836v12.271h3.284v2.587H9.285V26.139z"/>
	<path d="M24.004,26.139h6.26v2.587H20.83v-2.508l1.592-1.692c1.891-2.01,3.039-3.248,3.443-3.712
		c0.498-0.571,0.856-1.077,1.075-1.518c0.219-0.441,0.329-0.877,0.329-1.309c0-0.663-0.201-1.176-0.602-1.538
		c-0.402-0.361-0.97-0.542-1.707-0.542c-0.524,0-1.113,0.104-1.766,0.313c-0.654,0.209-1.335,0.513-2.045,0.911v-2.737
		c0.71-0.258,1.405-0.456,2.085-0.592c0.68-0.136,1.332-0.204,1.956-0.204c1.572,0,2.808,0.367,3.707,1.1
		c0.899,0.733,1.349,1.733,1.349,3c0,0.584-0.098,1.131-0.293,1.642c-0.196,0.511-0.533,1.078-1.01,1.702
		c-0.352,0.452-1.317,1.466-2.896,3.045C25.188,24.944,24.508,25.628,24.004,26.139z"/>
</g>
<rect x="13.387" fill="#FFFFFF" width="3.741" height="4.337"/>
<rect x="22.718" fill="#FFFFFF" width="3.741" height="4.337"/>
<rect x="32.049" fill="#FFFFFF" width="3.741" height="4.337"/>
<rect x="4.056" fill="#FFFFFF" width="3.741" height="4.337"/>
</svg>
