<?xml version="1.0" encoding="UTF-8" standalone="no"?>
<!-- Generator: Adobe Illustrator 13.0.0, SVG Export Plug-In . SVG Version: 6.00 Build 14948)  -->

<svg
   xmlns:dc="http://purl.org/dc/elements/1.1/"
   xmlns:cc="http://creativecommons.org/ns#"
   xmlns:rdf="http://www.w3.org/1999/02/22-rdf-syntax-ns#"
   xmlns:svg="http://www.w3.org/2000/svg"
   xmlns="http://www.w3.org/2000/svg"
   xmlns:sodipodi="http://sodipodi.sourceforge.net/DTD/sodipodi-0.dtd"
   xmlns:inkscape="http://www.inkscape.org/namespaces/inkscape"
   version="1.1"
   id="Ebene_1"
   x="0px"
   y="0px"
   width="39.878px"
   height="38.051px"
   viewBox="0 0 39.878 38.051"
   enable-background="new 0 0 39.878 38.051"
   xml:space="preserve"
   inkscape:version="0.48.4 r9939"
   sodipodi:docname="pebble_calendar_template.svg"><metadata
   id="metadata25"><rdf:RDF><cc:Work
       rdf:about=""><dc:format>image/svg+xml</dc:format><dc:type
         rdf:resource="http://purl.org/dc/dcmitype/StillImage" /></cc:Work></rdf:RDF></metadata><defs
   id="defs23" /><sodipodi:namedview
   pagecolor="#ffffff"
   bordercolor="#666666"
   borderopacity="1"
   objecttolerance="10"
   gridtolerance="10"
   guidetolerance="10"
   inkscape:pageopacity="0"
   inkscape:pageshadow="2"
   inkscape:window-width="936"
   inkscape:window-height="480"
   id="namedview21"
   showgrid="false"
   inkscape:zoom="6.2022025"
   inkscape:cx="19.938999"
   inkscape:cy="24.769056"
   inkscape:window-x="0"
   inkscape:window-y="0"
   inkscape:window-maximized="0"
   inkscape:current-layer="Ebene_1" />
<rect
   y="-11.78869"
   width="50.000004"
   height="49.839691"
   id="rect3"
   x="0" />
<polygon
   points="4.05,33.508 4.05,7.286 35.828,7.286 35.828,29.692 31.684,33.508 "
   id="polygon5"
   transform="matrix(1.2538243,0,0,1.3140259,0,-11.949001)"
   style="fill:#ffffff" />
<g
   id="g7"
   transform="matrix(1.2538243,0,0,1.3140259,0,-11.949001)">
	<path
   d="M 9.285,26.139 H 12.569 V 16.495 L 9.514,17.251 V 14.604 L 12.589,13.868 H 15.425 V 26.139 H 18.709 V 28.726 H 9.285 V 26.139 z"
   id="path9"
   inkscape:connector-curvature="0" />
	<path
   d="M 24.004,26.139 H 30.264 V 28.726 H 20.83 V 26.218 L 22.422,24.526 C 24.313,22.516 25.461,21.278 25.865,20.814 26.363,20.243 26.721,19.737 26.94,19.296 27.159,18.855 27.269,18.419 27.269,17.987 27.269,17.324 27.068,16.811 26.667,16.449 26.265,16.088 25.697,15.907 24.96,15.907 24.436,15.907 23.847,16.011 23.194,16.22 22.54,16.429 21.859,16.733 21.149,17.131 V 14.394 C 21.859,14.136 22.554,13.938 23.234,13.802 23.914,13.666 24.566,13.598 25.19,13.598 26.762,13.598 27.998,13.965 28.897,14.698 29.796,15.431 30.246,16.431 30.246,17.698 30.246,18.282 30.148,18.829 29.953,19.34 29.757,19.851 29.42,20.418 28.943,21.042 28.591,21.494 27.626,22.508 26.047,24.087 25.188,24.944 24.508,25.628 24.004,26.139 z"
   id="path11"
   inkscape:connector-curvature="0" />
</g>
<rect
   x="16.784946"
   width="4.6905565"
   height="5.6989303"
   id="rect13"
   y="-11.949001"
   style="fill:#ffffff" />
<rect
   x="28.484381"
   width="4.6905565"
   height="5.6989303"
   id="rect15"
   y="-11.949001"
   style="fill:#ffffff" />
<rect
   x="40.183815"
   width="4.6905565"
   height="5.6989303"
   id="rect17"
   y="-11.949001"
   style="fill:#ffffff" />
<rect
   x="5.0855117"
   width="4.6905565"
   height="5.6989303"
   id="rect19"
   y="-11.949001"
   style="fill:#ffffff" />
</svg>